<?xml version="1.0" encoding="UTF-8"?>
<svg id="Layer_1" data-name="Layer 1" xmlns="http://www.w3.org/2000/svg" viewBox="0 0 16 15.94">
  <defs>
    <style>
      .cls-1 {
        fill: #5daf79;
      }
    </style>
  </defs>
  <path class="cls-1" d="M6.28,10.29c0,1.73-1.4,3.15-3.15,3.15s-3.13-1.4-3.13-3.15,1.4-3.15,3.15-3.15,3.15,1.4,3.15,3.15h-.02ZM5.65,10.29c0-1.39-1.12-2.5-2.5-2.5s-2.5,1.12-2.5,2.5,1.12,2.5,2.5,2.5,2.5-1.12,2.5-2.5Z"/>
  <path class="cls-1" d="M4.71,11.87h-.49s-.25-.29-.31-.34c-.45-.38-1.1-.4-1.55,0-.07.05-.31.36-.32.36h-.49c0-.16.11-.32.2-.43.68-.94,2.09-.92,2.77,0,.09.13.2.27.2.41h-.02Z"/>
  <circle class="cls-1" cx="2.05" cy="9.52" r=".49"/>
  <circle class="cls-1" cx="4.23" cy="9.52" r=".49"/>
  <path class="cls-1" d="M14.03,3.13c0,1.73-1.4,3.15-3.15,3.15s-3.15-1.4-3.15-3.15,1.42-3.13,3.15-3.13,3.15,1.4,3.15,3.15h0v-.02ZM13.39,3.13c0-1.39-1.12-2.5-2.5-2.5s-2.5,1.12-2.5,2.5,1.12,2.5,2.5,2.5,2.5-1.12,2.5-2.5Z"/>
  <rect class="cls-1" x="9.93" y="3.74" width="1.91" height=".5"/>
  <circle class="cls-1" cx="9.81" cy="2.36" r=".49"/>
  <circle class="cls-1" cx="11.98" cy="2.36" r=".49"/>
  <path class="cls-1" d="M6.66,3.13c0,1.73-1.4,3.15-3.15,3.15S.38,4.86.38,3.13,1.78,0,3.51,0s3.15,1.4,3.15,3.15h0v-.02ZM6.03,3.13c0-1.39-1.12-2.5-2.5-2.5S1.03,1.75,1.03,3.13s1.12,2.5,2.5,2.5,2.5-1.12,2.5-2.5Z"/>
  <path class="cls-1" d="M5.09,3.74c-.47,1.48-2.68,1.48-3.17,0h.49s.23.27.29.32c.47.4,1.13.4,1.6,0,.07-.05.27-.32.29-.32h.5Z"/>
  <circle class="cls-1" cx="2.41" cy="2.36" r=".49"/>
  <circle class="cls-1" cx="4.61" cy="2.36" r=".49"/>
  <path class="cls-1" d="M10.42,6.96c2.68-.13,4.41,2.88,2.95,5.15l2.41,2.41c.65.76-.25,1.8-1.1,1.28l-2.54-2.54c-.05-.04-.23.11-.31.13-2.43.92-4.8-.86-4.61-3.45.13-1.62,1.6-2.91,3.18-2.99h0v.02ZM13.51,10.31c0-1.64-1.33-2.95-2.97-2.95s-2.97,1.33-2.97,2.95,1.33,2.95,2.97,2.95,2.97-1.33,2.97-2.95ZM13.15,12.45c-.22.22-.43.43-.68.61l2.39,2.39c.47.34.99-.2.67-.67-.79-.77-1.57-1.6-2.37-2.36h0v.02Z"/>
  <path class="cls-1" d="M13.3,10.31c0,1.51-1.22,2.73-2.73,2.73s-2.73-1.22-2.73-2.73,1.22-2.73,2.73-2.73,2.73,1.22,2.73,2.73ZM12.92,10.31c0-1.3-1.06-2.36-2.36-2.36s-2.36,1.04-2.36,2.36,1.06,2.36,2.36,2.36,2.36-1.04,2.36-2.36Z"/>
</svg>