<?xml version="1.0" encoding="UTF-8"?>
<svg id="Layer_1" xmlns="http://www.w3.org/2000/svg" version="1.1" viewBox="0 0 638.2 107.3">
  <!-- Generator: Adobe Illustrator 29.3.1, SVG Export Plug-In . SVG Version: 2.1.0 Build 151)  -->
  <defs>
    <style>
      .st0 {
        font-family: Gontserrat-SemiBold, Montserrat;
        font-size: 83.4px;
        font-weight: 600;
      }

      .st0, .st1 {
        isolation: isolate;
      }

      .st0, .st2 {
        fill: #5daf79;
      }
    </style>
  </defs>
  <g>
    <path class="st2" d="M34.9,61c0,9.6-7.8,17.5-17.5,17.5S0,70.7,0,61s7.8-17.5,17.5-17.5,17.5,7.8,17.5,17.5h0ZM31.4,61c0-7.7-6.2-13.9-13.9-13.9s-13.9,6.2-13.9,13.9,6.2,13.9,13.9,13.9,13.9-6.2,13.9-13.9Z"/>
    <path class="st2" d="M26.2,69.8h-2.7c-.1,0-1.4-1.6-1.7-1.9-2.5-2.1-6.1-2.2-8.6,0-.4.3-1.7,2-1.8,2h-2.7c0-.9.6-1.8,1.1-2.4,3.8-5.2,11.6-5.1,15.4,0,.5.7,1.1,1.5,1.1,2.3h0Z"/>
    <circle class="st2" cx="11.4" cy="56.7" r="2.7"/>
    <circle class="st2" cx="23.5" cy="56.7" r="2.7"/>
    <path class="st2" d="M78,21.2c0,9.6-7.8,17.5-17.5,17.5s-17.5-7.8-17.5-17.5S50.9,3.8,60.5,3.8s17.5,7.8,17.5,17.5h0ZM74.4,21.2c0-7.7-6.2-13.9-13.9-13.9s-13.9,6.2-13.9,13.9,6.2,13.9,13.9,13.9,13.9-6.2,13.9-13.9Z"/>
    <rect class="st2" x="55.2" y="24.6" width="10.6" height="2.8"/>
    <circle class="st2" cx="54.5" cy="16.9" r="2.7"/>
    <circle class="st2" cx="66.6" cy="16.9" r="2.7"/>
    <path class="st2" d="M37,21.2c0,9.6-7.8,17.5-17.5,17.5S2.1,30.8,2.1,21.2,9.9,3.8,19.5,3.8s17.5,7.8,17.5,17.5h0ZM33.5,21.2c0-7.7-6.2-13.9-13.9-13.9s-13.9,6.2-13.9,13.9,6.2,13.9,13.9,13.9,13.9-6.2,13.9-13.9Z"/>
    <path class="st2" d="M28.3,24.6c-2.6,8.2-14.9,8.2-17.6,0h2.7c.1,0,1.3,1.5,1.6,1.8,2.6,2.2,6.3,2.2,8.9,0,.4-.3,1.5-1.8,1.6-1.8h2.8Z"/>
    <circle class="st2" cx="13.4" cy="16.9" r="2.7"/>
    <circle class="st2" cx="25.6" cy="16.9" r="2.7"/>
    <path class="st2" d="M57.9,42.5c14.9-.7,24.5,16,16.4,28.6l13.4,13.4c3.6,4.2-1.4,10-6.1,7.1l-14.1-14.1c-.3-.2-1.3.6-1.7.7-13.5,5.1-26.7-4.8-25.6-19.2.7-9,8.9-16.2,17.7-16.6h0ZM75.1,61.1c0-9.1-7.4-16.4-16.5-16.4s-16.5,7.4-16.5,16.4,7.4,16.4,16.5,16.4,16.5-7.4,16.5-16.4ZM73.1,73c-1.2,1.2-2.4,2.4-3.8,3.4l13.3,13.3c2.6,1.9,5.5-1.1,3.7-3.7-4.4-4.3-8.7-8.9-13.2-13.1h0Z"/>
    <path class="st2" d="M73.9,61.1c0,8.4-6.8,15.2-15.2,15.2s-15.2-6.8-15.2-15.2,6.8-15.2,15.2-15.2,15.2,6.8,15.2,15.2ZM71.8,61.1c0-7.2-5.9-13.1-13.1-13.1s-13.1,5.8-13.1,13.1,5.9,13.1,13.1,13.1,13.1-5.8,13.1-13.1Z"/>
  </g>
  <g class="st1">
    <g class="st1">
      <g class="st1">
        <text class="st0" transform="translate(98.4 70.9)"><tspan x="0" y="0">SENTILYTICS</tspan></text>
      </g>
    </g>
  </g>
</svg>