<?xml version="1.0" encoding="UTF-8"?>
<svg id="Layer_1" data-name="Layer 1" xmlns="http://www.w3.org/2000/svg" viewBox="0 0 638.16 107.29">
  <defs>
    <style>
      .cls-1, .cls-2 {
        fill: #fff;
      }

      .cls-3, .cls-2 {
        isolation: isolate;
      }

      .cls-2 {
        font-family: Gontserrat-SemiBold, Montserrat;
        font-size: 83.43px;
        font-weight: 600;
      }
    </style>
  </defs>
  <g>
    <path class="cls-1" d="M34.92,61.01c0,9.64-7.82,17.45-17.46,17.45S0,70.65,0,61.01s7.82-17.45,17.46-17.45,17.46,7.81,17.46,17.45ZM31.37,61.01c0-7.68-6.23-13.9-13.92-13.9s-13.92,6.22-13.92,13.9,6.23,13.9,13.92,13.9,13.92-6.22,13.92-13.9Z"/>
    <path class="cls-1" d="M26.25,69.81h-2.7c-.13,0-1.35-1.59-1.74-1.92-2.52-2.1-6.07-2.15-8.63-.09-.42.34-1.69,2-1.83,2h-2.7c-.03-.87.64-1.75,1.15-2.42,3.84-5.15,11.61-5.12,15.38.1.48.66,1.11,1.48,1.08,2.32h0Z"/>
    <circle class="cls-1" cx="11.36" cy="56.66" r="2.69"/>
    <circle class="cls-1" cx="23.54" cy="56.66" r="2.69"/>
    <path class="cls-1" d="M78,21.2c0,9.64-7.82,17.45-17.46,17.45s-17.46-7.81-17.46-17.45S50.9,3.75,60.54,3.75s17.46,7.81,17.46,17.45ZM74.45,21.21c0-7.68-6.23-13.91-13.92-13.91s-13.92,6.22-13.92,13.91,6.23,13.91,13.92,13.91,13.92-6.22,13.92-13.91Z"/>
    <rect class="cls-1" x="55.15" y="24.63" width="10.64" height="2.79"/>
    <circle class="cls-1" cx="54.45" cy="16.85" r="2.67"/>
    <circle class="cls-1" cx="66.63" cy="16.86" r="2.67"/>
    <path class="cls-1" d="M36.99,21.2c0,9.64-7.82,17.45-17.46,17.45S2.07,30.84,2.07,21.2,9.89,3.75,19.53,3.75s17.46,7.81,17.46,17.45ZM33.45,21.2c0-7.68-6.23-13.91-13.92-13.91s-13.92,6.22-13.92,13.91,6.23,13.91,13.92,13.91,13.92-6.22,13.92-13.91Z"/>
    <path class="cls-1" d="M28.33,24.63c-2.64,8.18-14.95,8.19-17.6,0h2.7c.12,0,1.3,1.53,1.65,1.83,2.58,2.21,6.31,2.21,8.89,0,.35-.31,1.53-1.83,1.65-1.83h2.7Z"/>
    <circle class="cls-1" cx="13.45" cy="16.86" r="2.67"/>
    <circle class="cls-1" cx="25.62" cy="16.86" r="2.67"/>
    <path class="cls-1" d="M57.93,42.53c14.89-.65,24.48,16.04,16.43,28.57l13.4,13.43c3.59,4.22-1.36,9.96-6.09,7.13l-14.13-14.1c-.33-.16-1.32.55-1.74.71-13.45,5.07-26.74-4.81-25.6-19.15.71-9,8.87-16.19,17.73-16.58h0ZM75.13,61.1c0-9.08-7.37-16.44-16.45-16.44s-16.45,7.36-16.45,16.44,7.37,16.44,16.45,16.44,16.45-7.36,16.45-16.44ZM73.06,72.96c-1.23,1.16-2.36,2.42-3.76,3.39l13.33,13.32c2.55,1.87,5.48-1.14,3.65-3.65-4.4-4.35-8.68-8.9-13.21-13.06h0Z"/>
    <path class="cls-1" d="M73.88,61.1c0,8.39-6.8,15.19-15.19,15.19s-15.19-6.8-15.19-15.19,6.8-15.19,15.19-15.19,15.19,6.8,15.19,15.19ZM71.77,61.1c0-7.22-5.86-13.08-13.09-13.08s-13.09,5.85-13.09,13.08,5.86,13.08,13.09,13.08,13.09-5.85,13.09-13.08Z"/>
  </g>
  <g class="cls-3">
    <text class="cls-2" transform="translate(98.38 70.91)"><tspan x="0" y="0">SENTILYTICS</tspan></text>
  </g>
</svg>